<svg xmlns="http://www.w3.org/2000/svg" viewBox="0 0 50 50"><defs><style>.cls-1{fill:#e84c7e;}.cls-2{fill:#f9f5da;}</style></defs><g id="Layer_2" data-name="Layer 2"><g id="Layer_1-2" data-name="Layer 1"><circle class="cls-1" cx="25" cy="25" r="25"/><path class="cls-2" d="M19.62,23.79a15.15,15.15,0,0,0,6.59,6.59l2.2-2.2a1,1,0,0,1,1-.24,11.41,11.41,0,0,0,3.57.57,1,1,0,0,1,1,1V33a1,1,0,0,1-1,1A17,17,0,0,1,16,17a1,1,0,0,1,1-1h3.5a1,1,0,0,1,1,1,11.36,11.36,0,0,0,.57,3.57,1,1,0,0,1-.25,1Z"/></g></g></svg>